# xmcd
#
# Track frame offsets: 
#        150
#        15886
#        31992
#        46979
#        66375
#        84017
#        99962
#        120708
#        136136
#        148898
#
# Disc length: 2214 seconds
#
# Revision: 0
# Processed by: cddbd v1.5.2PL0 Copyright (c) Steve Scherf et al.
# Submitted via: ExactAudioCopy v0.99pb4
#
DISCID=7808a40a
DTITLE=MBird - Over The Bones
DYEAR=2009
DGENRE=Alt-Country
TTITLE0=Train Song
TTITLE1=Over the Bones
TTITLE2=Over My Head
TTITLE3=Blues and the Highway
TTITLE4=One Kiss
TTITLE5=I See Your Mind
TTITLE6=Lonesome
TTITLE7=Enough for Me
TTITLE8=Porch Swing
TTITLE9=This Bridge (Boat Song)
EXTD=
EXTT0=
EXTT1=
EXTT2=
EXTT3=
EXTT4=
EXTT5=
EXTT6=
EXTT7=
EXTT8=
EXTT9=
PLAYORDER=
